<svg xmlns="http://www.w3.org/2000/svg" width="1000" height="320" viewBox="0 0 1000 320" fill="none" font-family="'Segoe UI', 'Helvetica Neue', Arial, sans-serif" role="img" aria-label="SideRail">
  <defs>
    <linearGradient id="bg" x1="0" y1="0" x2="1000" y2="320" gradientUnits="userSpaceOnUse">
      <stop offset="0" stop-color="#0d0d12"/>
      <stop offset="1" stop-color="#17171f"/>
    </linearGradient>
    <linearGradient id="green" x1="0" y1="0" x2="0" y2="1">
      <stop offset="0" stop-color="#c6ff5e"/>
      <stop offset="1" stop-color="#a3e635"/>
    </linearGradient>
    <pattern id="dots" width="30" height="30" patternUnits="userSpaceOnUse">
      <circle cx="2" cy="2" r="1.5" fill="#a3e635" fill-opacity="0.13"/>
    </pattern>
    <filter id="glow" x="-50%" y="-50%" width="200%" height="200%">
      <feGaussianBlur stdDeviation="26" result="b"/>
      <feMerge><feMergeNode in="b"/><feMergeNode in="SourceGraphic"/></feMerge>
    </filter>
  </defs>

  <rect x="6" y="6" width="988" height="308" rx="28" fill="url(#bg)" stroke="#a3e635" stroke-width="5"/>
  <rect x="6" y="6" width="988" height="308" rx="28" fill="url(#dots)"/>
  <circle cx="890" cy="60" r="130" fill="#a3e635" fill-opacity="0.10" filter="url(#glow)"/>
  <circle cx="120" cy="290" r="120" fill="#7dd3fc" fill-opacity="0.07" filter="url(#glow)"/>

  <g transform="translate(72 105)">
    <rect x="0" y="0" width="112" height="112" rx="24" fill="url(#green)" stroke="#0b0b0f" stroke-width="5"/>
    <g transform="translate(56 56) scale(0.40) translate(-139 -87)" fill="#0b0b0f">
      <path d="M204.443 116.854C193.075 141.7 168.049 158.997 138.924 158.997C90.2988 158.262 73.4029 117.029 73.3311 116.854H204.443Z"/>
      <path d="M138.924 15C178.732 15.0003 211.001 47.2522 211 87.0293C210.993 94.7072 209.756 102.334 207.332 109.62H70.835C69.9423 106.835 69.3467 104.312 69.3467 104.312H169.343C175.731 104.311 181.006 101.043 183.458 95.5635C186.122 89.6007 184.994 83.3758 181.076 77.9619C176.838 72.1086 169.728 63.8922 164.805 60.1699C155.733 53.3073 144.205 52.3 134.825 51.9873L132.133 51.8877C127.784 51.7062 126.956 51.6064 104.693 51.6064V51.6152C104.693 51.6152 85.856 51.6272 76.1846 51.6475C88.5599 29.7872 111.994 15 138.924 15Z"/>
      <path d="M177.241 91.1748C176.416 94.3667 173.877 96.9404 169.343 96.9404H67.6152C67.3529 95.0449 67.171 93.1222 67.0557 91.1748H177.241Z"/>
      <path d="M104.673 58.8369C123.768 58.8369 127.022 58.915 131.819 59.1123C146.208 59.726 156.269 57.6306 174.968 81.7881C175.485 82.4465 175.998 83.122 176.38 83.8682H67C67.1026 81.4421 67.325 79.0211 67.668 76.6172H125.163V69.3164H69.1123C69.77 66.3355 71.1219 62.6702 72.5225 58.8896C83.342 58.8608 94.4528 58.8369 104.673 58.8369Z"/>
    </g>
  </g>

  <text x="216" y="150" font-size="86" font-weight="900" letter-spacing="-3" fill="#ffffff">SideRail</text>
  <rect x="220" y="176" width="560" height="40" rx="10" fill="url(#green)"/>
  <text x="240" y="204" font-size="21" font-weight="800" letter-spacing="0.4" fill="#0b0b0f">XRAY-CORE VPN PANEL &#183; ONE-CLICK ON RAILWAY</text>

  <g font-size="18" font-weight="800">
    <g transform="translate(220 232)">
      <rect x="0" y="0" width="112" height="36" rx="9" fill="none" stroke="#a3e635" stroke-width="2.5"/>
      <text x="56" y="24" text-anchor="middle" fill="#a3e635">VLESS</text>
    </g>
    <g transform="translate(342 232)">
      <rect x="0" y="0" width="112" height="36" rx="9" fill="none" stroke="#7dd3fc" stroke-width="2.5"/>
      <text x="56" y="24" text-anchor="middle" fill="#7dd3fc">VMESS</text>
    </g>
    <g transform="translate(464 232)">
      <rect x="0" y="0" width="112" height="36" rx="9" fill="none" stroke="#f0abfc" stroke-width="2.5"/>
      <text x="56" y="24" text-anchor="middle" fill="#f0abfc">TROJAN</text>
    </g>
  </g>
</svg>
